<svg width="914" height="400" fill="none" xmlns="http://www.w3.org/2000/svg"><style>#CL0 {fill: #00ACD7;}#CL1 {fill: #333;}@media (prefers-color-scheme: dark) {#CL0 {fill: #00ACD7;}#CL1 {fill: #EEE;}}</style><path d="m366.555 193.207.109 1.791c.282-.638.67-1.139 1.162-1.504.501-.374 1.107-.56 1.818-.56.347 0 .657.041.93.123a1.914 1.914 0 0 1 1.107.847c.119.173.219.374.301.602.128-.219.269-.415.424-.588.164-.182.342-.337.533-.465.237-.164.506-.292.807-.383.301-.091.629-.136.984-.136.447 0 .862.082 1.244.246a2.64 2.64 0 0 1 1.026.779c.282.365.501.834.656 1.408.164.565.246 1.258.246 2.078V208h-3.459v-10.568c0-.283-.032-.515-.095-.698a1.113 1.113 0 0 0-.233-.437.777.777 0 0 0-.355-.205 1.164 1.164 0 0 0-.397-.069c-.146 0-.278.019-.396.055-.11.037-.215.087-.315.151a1.221 1.221 0 0 0-.219.218c-.063.073-.118.16-.164.26V208h-3.349v-10.582c0-.283-.028-.515-.082-.697a1.088 1.088 0 0 0-.219-.424.778.778 0 0 0-.342-.205 1.196 1.196 0 0 0-.41-.069c-.164 0-.31.028-.437.082a1.088 1.088 0 0 0-.534.493c-.054.1-.104.209-.15.328V208h-3.459v-14.793h3.268Zm14.342 0h8.053v11.703h4.006V208h-12.059v-3.09h4.211v-8.599h-4.211v-3.104Zm3.938-3.787c0-.292.05-.561.15-.807.11-.255.26-.474.451-.656.192-.173.42-.31.684-.41.274-.1.574-.151.902-.151.675 0 1.208.192 1.6.575.401.373.602.856.602 1.449 0 .592-.201 1.08-.602 1.463-.392.374-.925.56-1.6.56a2.61 2.61 0 0 1-.902-.15 2.025 2.025 0 0 1-.684-.424 1.863 1.863 0 0 1-.451-.629c-.1-.255-.15-.528-.15-.82ZM395.582 208v-14.793h3.445l.233 2.051a5.735 5.735 0 0 1 1.353-1.367 5.15 5.15 0 0 1 1.436-.711 5.461 5.461 0 0 1 1.654-.246 6.12 6.12 0 0 1 2.051.328c.62.218 1.158.565 1.613 1.039.447.483.793 1.103 1.039 1.859.256.748.383 1.659.383 2.735V208h-3.801v-9.051c0-.583-.068-1.062-.205-1.435-.127-.383-.314-.684-.56-.903a2.02 2.02 0 0 0-.889-.451 4.632 4.632 0 0 0-1.176-.137 3.94 3.94 0 0 0-1.011.123c-.301.083-.57.206-.807.37a2.576 2.576 0 0 0-.52.423 3.666 3.666 0 0 0-.423.547V208h-3.815Zm16.708-14.793h8.053v11.703h4.006V208H412.29v-3.09h4.211v-8.599h-4.211v-3.104Zm3.938-3.787c0-.292.05-.561.15-.807a1.96 1.96 0 0 1 .451-.656c.192-.173.42-.31.684-.41.273-.1.574-.151.902-.151.675 0 1.208.192 1.6.575.401.373.601.856.601 1.449 0 .592-.2 1.08-.601 1.463-.392.374-.925.56-1.6.56-.328 0-.629-.05-.902-.15a2.025 2.025 0 0 1-.684-.424 1.85 1.85 0 0 1-.451-.629c-.1-.255-.15-.528-.15-.82Zm20.29 14.519c0-.227-.055-.428-.164-.601-.1-.173-.283-.337-.547-.492a5.577 5.577 0 0 0-1.08-.41 18.818 18.818 0 0 0-1.695-.383 17.264 17.264 0 0 1-2.379-.643c-.711-.264-1.322-.583-1.832-.957a4.284 4.284 0 0 1-1.204-1.271c-.282-.483-.423-1.039-.423-1.668 0-.611.145-1.194.437-1.75a4.44 4.44 0 0 1 1.258-1.463c.547-.419 1.212-.752 1.996-.998s1.668-.369 2.652-.369c1.03 0 1.955.123 2.776.369.82.237 1.517.565 2.092.984.565.428.998.934 1.298 1.518a4.08 4.08 0 0 1 .452 1.9h-3.801c0-.246-.041-.474-.123-.684a1.734 1.734 0 0 0-.369-.587c-.228-.228-.538-.411-.93-.547-.383-.137-.848-.205-1.395-.205-.464 0-.87.045-1.216.136a2.45 2.45 0 0 0-.848.383 1.56 1.56 0 0 0-.465.52c-.1.191-.15.396-.15.615 0 .219.045.424.136.615.092.182.256.347.493.492.227.155.542.297.943.424.401.119.911.223 1.531.315.893.145 1.723.332 2.489.56.765.228 1.426.52 1.982.875.556.365.989.807 1.299 1.326.319.511.478 1.121.478 1.832a3.59 3.59 0 0 1-.478 1.819c-.31.547-.752 1.021-1.326 1.422-.584.401-1.286.715-2.106.943-.82.219-1.736.328-2.748.328-1.112 0-2.096-.146-2.953-.437-.848-.292-1.559-.675-2.133-1.149-.574-.465-1.012-.993-1.312-1.586a4.099 4.099 0 0 1-.438-1.804h3.623c.028.401.137.747.328 1.039.192.282.438.51.739.683.3.182.642.315 1.025.397a5.86 5.86 0 0 0 1.203.123 5.91 5.91 0 0 0 1.285-.123c.374-.091.679-.21.916-.356a1.48 1.48 0 0 0 .506-.506c.119-.191.178-.401.178-.629Zm13.126-14.355v3.623h5.523v2.803h-5.523v6.357c0 .538.059.989.178 1.354.127.355.305.638.533.847.228.219.501.374.82.465a4.09 4.09 0 0 0 1.094.137c.292 0 .588-.014.889-.041.31-.027.606-.064.888-.109a13.552 13.552 0 0 0 1.395-.26l.369 2.611a4.853 4.853 0 0 1-.93.41c-.355.11-.733.201-1.134.274-.401.073-.821.127-1.258.164-.429.045-.852.068-1.272.068-.811 0-1.549-.105-2.215-.314a4.311 4.311 0 0 1-1.681-1.012c-.474-.447-.839-1.016-1.094-1.709-.255-.702-.383-1.54-.383-2.516v-6.726h-3.377v-2.803h3.377v-3.623h3.801ZM467.61 208a3.308 3.308 0 0 1-.232-.629 8.455 8.455 0 0 1-.165-.752 4.884 4.884 0 0 1-1.627 1.162 5.073 5.073 0 0 1-1.107.356 5.865 5.865 0 0 1-1.299.136 6.409 6.409 0 0 1-2.092-.328 4.965 4.965 0 0 1-1.627-.916 4.193 4.193 0 0 1-1.066-1.394 4.157 4.157 0 0 1-.383-1.778c0-.82.16-1.545.479-2.173a3.953 3.953 0 0 1 1.435-1.573c.575-.373 1.281-.656 2.119-.847.848-.201 1.819-.301 2.913-.301h2.119v-.875c0-.346-.055-.656-.164-.93a1.903 1.903 0 0 0-.493-.724 2.238 2.238 0 0 0-.861-.479 3.603 3.603 0 0 0-1.189-.178c-.401 0-.748.05-1.039.151a1.783 1.783 0 0 0-.711.396 1.469 1.469 0 0 0-.369.561c-.073.219-.11.46-.11.724h-3.801c0-.629.137-1.226.411-1.791a4.432 4.432 0 0 1 1.23-1.49c.529-.428 1.176-.766 1.941-1.012.775-.255 1.659-.382 2.653-.382.893 0 1.722.109 2.488.328.775.218 1.445.542 2.01.97a4.458 4.458 0 0 1 1.326 1.627c.319.648.479 1.399.479 2.256v6.344c0 .793.05 1.449.15 1.969.1.519.246.966.437 1.34V208h-3.855Zm-3.623-2.666c.383 0 .738-.046 1.066-.137.328-.091.625-.209.889-.355a3.33 3.33 0 0 0 .684-.492c.191-.192.341-.383.451-.575v-2.543h-1.942c-.592 0-1.098.06-1.517.178-.42.11-.761.264-1.026.465-.264.21-.46.46-.588.752a2.242 2.242 0 0 0-.191.93c0 .264.046.51.137.738.1.219.241.406.424.56.182.146.405.265.67.356.273.082.587.123.943.123Zm17.05-15.75v3.623h5.523v2.803h-5.523v6.357c0 .538.059.989.178 1.354.127.355.305.638.533.847.228.219.501.374.82.465a4.09 4.09 0 0 0 1.094.137c.291 0 .588-.014.888-.041.31-.027.607-.064.889-.109a13.552 13.552 0 0 0 1.395-.26l.369 2.611a4.88 4.88 0 0 1-.93.41c-.355.11-.734.201-1.135.274-.401.073-.82.127-1.257.164-.429.045-.853.068-1.272.068-.811 0-1.549-.105-2.215-.314a4.304 4.304 0 0 1-1.681-1.012c-.474-.447-.839-1.016-1.094-1.709-.255-.702-.383-1.54-.383-2.516v-6.726h-3.377v-2.803h3.377v-3.623h3.801Zm18.267 14.355c0-.227-.055-.428-.165-.601-.1-.173-.282-.337-.546-.492a5.603 5.603 0 0 0-1.08-.41 18.77 18.77 0 0 0-1.696-.383 17.264 17.264 0 0 1-2.379-.643 7.51 7.51 0 0 1-1.832-.957 4.293 4.293 0 0 1-1.203-1.271c-.282-.483-.424-1.039-.424-1.668 0-.611.146-1.194.438-1.75a4.429 4.429 0 0 1 1.258-1.463c.546-.419 1.212-.752 1.996-.998s1.668-.369 2.652-.369c1.03 0 1.955.123 2.775.369.821.237 1.518.565 2.092.984a4.46 4.46 0 0 1 1.299 1.518c.301.583.451 1.216.451 1.9h-3.801c0-.246-.041-.474-.123-.684a1.734 1.734 0 0 0-.369-.587c-.228-.228-.537-.411-.929-.547-.383-.137-.848-.205-1.395-.205-.465 0-.87.045-1.217.136-.346.092-.629.219-.847.383a1.56 1.56 0 0 0-.465.52c-.1.191-.151.396-.151.615 0 .219.046.424.137.615.091.182.255.347.492.492.228.155.543.297.944.424.401.119.911.223 1.531.315.893.145 1.723.332 2.488.56.766.228 1.427.52 1.983.875.556.365.989.807 1.298 1.326.319.511.479 1.121.479 1.832 0 .657-.16 1.263-.479 1.819-.309.547-.752 1.021-1.326 1.422-.583.401-1.285.715-2.105.943-.821.219-1.737.328-2.748.328-1.112 0-2.097-.146-2.953-.437-.848-.292-1.559-.675-2.133-1.149-.574-.465-1.012-.993-1.313-1.586a4.11 4.11 0 0 1-.437-1.804h3.623c.027.401.137.747.328 1.039.191.282.437.51.738.683.301.182.643.315 1.026.397a5.86 5.86 0 0 0 1.203.123c.492 0 .92-.041 1.285-.123.374-.091.679-.21.916-.356a1.49 1.49 0 0 0 .506-.506c.118-.191.178-.401.178-.629Z" id="CL1"/><path d="M509.723 206.031c0-.629.2-1.166.601-1.613.41-.447.998-.67 1.764-.67.747 0 1.331.223 1.75.67.419.437.629.975.629 1.613s-.214 1.171-.643 1.6c-.419.428-.998.642-1.736.642-.748 0-1.331-.214-1.75-.642-.41-.438-.615-.971-.615-1.6Zm11.198-5.537c0-1.121.137-2.142.41-3.062.274-.93.67-1.728 1.19-2.393a5.442 5.442 0 0 1 1.873-1.545c.738-.374 1.567-.56 2.488-.56.547 0 1.044.059 1.49.177.447.11.852.274 1.217.493.237.136.46.3.67.492.209.182.405.383.588.601l.136-1.49h2.967v14.383c0 .993-.164 1.873-.492 2.639a5.469 5.469 0 0 1-1.353 1.968c-.593.529-1.304.93-2.133 1.203-.821.283-1.727.424-2.721.424-.419 0-.88-.045-1.381-.136a8.583 8.583 0 0 1-1.504-.424 6.974 6.974 0 0 1-1.435-.752 4.915 4.915 0 0 1-1.176-1.121l1.545-1.983c.264.319.547.593.848.821.309.236.624.428.943.574.319.146.642.25.971.314.328.073.66.11.998.11.583 0 1.098-.082 1.545-.247a3.21 3.21 0 0 0 1.162-.71c.291-.301.515-.67.67-1.108.164-.437.246-.934.246-1.49v-1.026a6.897 6.897 0 0 1-.602.561 3.6 3.6 0 0 1-.656.451 4.425 4.425 0 0 1-1.176.451c-.428.11-.893.164-1.394.164-.912 0-1.732-.186-2.461-.56a5.669 5.669 0 0 1-1.873-1.586c-.511-.665-.907-1.454-1.19-2.365a10.442 10.442 0 0 1-.41-2.981v-.287Zm3.281.287c0 .657.064 1.276.192 1.86.136.583.351 1.089.642 1.517.283.447.643.798 1.08 1.053.438.246.957.369 1.559.369a3.85 3.85 0 0 0 1.012-.123c.309-.082.587-.196.834-.342.246-.155.464-.342.656-.56a4.17 4.17 0 0 0 .506-.725v-6.48a3.311 3.311 0 0 0-.534-.739 2.983 2.983 0 0 0-.697-.56 3.391 3.391 0 0 0-.793-.301 3.52 3.52 0 0 0-.957-.123c-.61 0-1.135.128-1.572.383a3.13 3.13 0 0 0-1.08 1.052 4.806 4.806 0 0 0-.643 1.559 8.233 8.233 0 0 0-.205 1.873v.287Zm12.238-.314c0-1.076.155-2.069.464-2.981a6.92 6.92 0 0 1 1.354-2.392 6.132 6.132 0 0 1 2.146-1.586c.848-.383 1.814-.574 2.899-.574 1.084 0 2.051.191 2.898.574a6.23 6.23 0 0 1 2.174 1.586 7.055 7.055 0 0 1 1.34 2.392c.31.912.465 1.905.465 2.981v.287c0 1.085-.155 2.083-.465 2.994a7.08 7.08 0 0 1-1.34 2.379 6.107 6.107 0 0 1-2.16 1.586c-.848.383-1.809.574-2.885.574-1.084 0-2.055-.191-2.912-.574a6.107 6.107 0 0 1-2.16-1.586 6.943 6.943 0 0 1-1.354-2.379c-.309-.911-.464-1.909-.464-2.994v-.287Zm3.267.287c0 .665.069 1.294.205 1.887.146.592.369 1.112.67 1.558.292.447.666.802 1.121 1.067.456.255.998.382 1.627.382.611 0 1.144-.127 1.6-.382.456-.265.829-.62 1.121-1.067.292-.446.506-.966.642-1.558a7.87 7.87 0 0 0 .219-1.887v-.287c0-.647-.073-1.267-.219-1.86a5.22 5.22 0 0 0-.642-1.558 3.432 3.432 0 0 0-1.135-1.067c-.446-.264-.984-.396-1.613-.396-.62 0-1.158.132-1.613.396a3.35 3.35 0 0 0-1.108 1.067 4.825 4.825 0 0 0-.67 1.558 8.297 8.297 0 0 0-.205 1.86v.287Z" id="CL0"/></svg>